HIERARCHY
ROOT Hips
{
	OFFSET 0.000000 100.481300 0.000000
	CHANNELS 6 Xposition Yposition Zposition Xrotation Yrotation Zrotation
	JOINT Spine
	{
		OFFSET -0.279200 12.230698 -2.892100
		CHANNELS 3 Xrotation Yrotation Zrotation
		JOINT Spine1
		{
			OFFSET -0.325700 14.269203 -3.374200
			CHANNELS 3 Xrotation Yrotation Zrotation
			JOINT Spine2
			{
				OFFSET -0.372300 16.307602 -0.352600
				CHANNELS 3 Xrotation Yrotation Zrotation
				JOINT Neck
				{
					OFFSET -0.418800 17.814194 8.416900
					CHANNELS 3 Xrotation Yrotation Zrotation
					JOINT Head
					{
						OFFSET 0.000000 7.031097 3.806800
						CHANNELS 3 Xrotation Yrotation Zrotation
						JOINT HeadTop_End
						{
							OFFSET 0.000000 24.646606 12.978600
							CHANNELS 3 Xrotation Yrotation Zrotation
							End Site
							{
								OFFSET 0.000000 27.854965 0.000000
							}
						}
					}
				}
				JOINT LeftShoulder
				{
					OFFSET 16.952999 14.495407 -7.737500
					CHANNELS 3 Xrotation Yrotation Zrotation
					JOINT LeftArm
					{
						OFFSET 9.308998 -2.777710 0.208600
						CHANNELS 3 Xrotation Yrotation Zrotation
						JOINT LeftForeArm
						{
							OFFSET 29.972298 0.000000 0.000000
							CHANNELS 3 Xrotation Yrotation Zrotation
							JOINT LeftHand
							{
								OFFSET 26.026505 0.000000 0.000000
								CHANNELS 3 Xrotation Yrotation Zrotation
								JOINT LeftHandThumb1
								{
									OFFSET 12.240501 -7.147949 9.207150
									CHANNELS 3 Xrotation Yrotation Zrotation
									JOINT LeftHandThumb2
									{
										OFFSET 4.138618 -2.389435 2.389433
										CHANNELS 3 Xrotation Yrotation Zrotation
										JOINT LeftHandThumb3
										{
											OFFSET 2.726913 -1.574387 1.574386
											CHANNELS 3 Xrotation Yrotation Zrotation
											JOINT LeftHandThumb4
											{
												OFFSET 3.941010 -2.275345 2.275342
												CHANNELS 3 Xrotation Yrotation Zrotation
												End Site
												{
													OFFSET -0.005798 5.087799 0.009903
												}
											}
										}
									}
								}
								JOINT LeftHandIndex1
								{
									OFFSET 24.424698 -1.985611 5.953459
									CHANNELS 3 Xrotation Yrotation Zrotation
									JOINT LeftHandIndex2
									{
										OFFSET 6.426697 0.000000 0.000000
										CHANNELS 3 Xrotation Yrotation Zrotation
										JOINT LeftHandIndex3
										{
											OFFSET 5.337898 0.000000 0.000000
											CHANNELS 3 Xrotation Yrotation Zrotation
											JOINT LeftHandIndex4
											{
												OFFSET 4.409401 0.000000 0.000000
												CHANNELS 3 Xrotation Yrotation Zrotation
												End Site
												{
													OFFSET 0.000000 4.409363 0.014373
												}
											}
										}
									}
								}
								JOINT LeftHandMiddle1
								{
									OFFSET 23.810104 0.000000 0.000000
									CHANNELS 3 Xrotation Yrotation Zrotation
									JOINT LeftHandMiddle2
									{
										OFFSET 7.176498 0.000000 0.000000
										CHANNELS 3 Xrotation Yrotation Zrotation
										JOINT LeftHandMiddle3
										{
											OFFSET 6.774902 0.000000 0.000000
											CHANNELS 3 Xrotation Yrotation Zrotation
											JOINT LeftHandMiddle4
											{
												OFFSET 5.403328 0.000000 0.000000
												CHANNELS 3 Xrotation Yrotation Zrotation
												End Site
												{
													OFFSET -0.027702 5.403244 0.017414
												}
											}
										}
									}
								}
								JOINT LeftHandRing1
								{
									OFFSET 22.908401 -0.839279 -6.020567
									CHANNELS 3 Xrotation Yrotation Zrotation
									JOINT LeftHandRing2
									{
										OFFSET 6.337502 0.000000 0.000000
										CHANNELS 3 Xrotation Yrotation Zrotation
										JOINT LeftHandRing3
										{
											OFFSET 5.779297 0.000000 0.000000
											CHANNELS 3 Xrotation Yrotation Zrotation
											JOINT LeftHandRing4
											{
												OFFSET 4.965698 0.000000 0.000000
												CHANNELS 3 Xrotation Yrotation Zrotation
												End Site
												{
													OFFSET 0.000000 4.965668 0.016186
												}
											}
										}
									}
								}
								JOINT LeftHandPinky1
								{
									OFFSET 20.037003 -1.530319 -10.950146
									CHANNELS 3 Xrotation Yrotation Zrotation
									JOINT LeftHandPinky2
									{
										OFFSET 5.254700 0.000000 0.000000
										CHANNELS 3 Xrotation Yrotation Zrotation
										JOINT LeftHandPinky3
										{
											OFFSET 4.810204 0.000000 0.000000
											CHANNELS 3 Xrotation Yrotation Zrotation
											JOINT LeftHandPinky4
											{
												OFFSET 3.647202 0.000000 0.000000
												CHANNELS 3 Xrotation Yrotation Zrotation
												End Site
												{
													OFFSET 0.000000 3.647186 0.011889
												}
											}
										}
									}
								}
							}
						}
					}
				}
				JOINT RightShoulder
				{
					OFFSET -15.141001 14.495407 -7.737500
					CHANNELS 3 Xrotation Yrotation Zrotation
					JOINT RightArm
					{
						OFFSET -9.308998 -2.777710 0.208500
						CHANNELS 3 Xrotation Yrotation Zrotation
						JOINT RightForeArm
						{
							OFFSET -29.972300 0.000000 0.000000
							CHANNELS 3 Xrotation Yrotation Zrotation
							JOINT RightHand
							{
								OFFSET -26.026505 0.000000 0.000000
								CHANNELS 3 Xrotation Yrotation Zrotation
								JOINT RightHandThumb1
								{
									OFFSET -12.240601 -7.148026 9.207092
									CHANNELS 3 Xrotation Yrotation Zrotation
									JOINT RightHandThumb2
									{
										OFFSET -4.138618 -2.389435 2.389433
										CHANNELS 3 Xrotation Yrotation Zrotation
										JOINT RightHandThumb3
										{
											OFFSET -2.726974 -1.574417 1.574421
											CHANNELS 3 Xrotation Yrotation Zrotation
											JOINT RightHandThumb4
											{
												OFFSET -3.941010 -2.275345 2.275343
												CHANNELS 3 Xrotation Yrotation Zrotation
												End Site
												{
													OFFSET 0.005814 5.087799 0.009927
												}
											}
										}
									}
								}
								JOINT RightHandIndex1
								{
									OFFSET -24.424698 -1.985657 5.953444
									CHANNELS 3 Xrotation Yrotation Zrotation
									JOINT RightHandIndex2
									{
										OFFSET -6.426697 0.000000 0.000000
										CHANNELS 3 Xrotation Yrotation Zrotation
										JOINT RightHandIndex3
										{
											OFFSET -5.337898 0.000000 0.000000
											CHANNELS 3 Xrotation Yrotation Zrotation
											JOINT RightHandIndex4
											{
												OFFSET -4.409401 0.000000 0.000000
												CHANNELS 3 Xrotation Yrotation Zrotation
												End Site
												{
													OFFSET 0.000000 4.409363 0.014408
												}
											}
										}
									}
								}
								JOINT RightHandMiddle1
								{
									OFFSET -23.810097 0.000000 0.000000
									CHANNELS 3 Xrotation Yrotation Zrotation
									JOINT RightHandMiddle2
									{
										OFFSET -7.176498 0.000000 0.000000
										CHANNELS 3 Xrotation Yrotation Zrotation
										JOINT RightHandMiddle3
										{
											OFFSET -6.774902 0.000000 0.000000
											CHANNELS 3 Xrotation Yrotation Zrotation
											JOINT RightHandMiddle4
											{
												OFFSET -5.403328 0.000000 0.000000
												CHANNELS 3 Xrotation Yrotation Zrotation
												End Site
												{
													OFFSET 0.027702 5.403244 0.017457
												}
											}
										}
									}
								}
								JOINT RightHandRing1
								{
									OFFSET -22.908302 -0.839325 -6.020576
									CHANNELS 3 Xrotation Yrotation Zrotation
									JOINT RightHandRing2
									{
										OFFSET -6.337502 0.000000 0.000000
										CHANNELS 3 Xrotation Yrotation Zrotation
										JOINT RightHandRing3
										{
											OFFSET -5.779297 0.000000 0.000000
											CHANNELS 3 Xrotation Yrotation Zrotation
											JOINT RightHandRing4
											{
												OFFSET -4.965698 0.000000 0.000000
												CHANNELS 3 Xrotation Yrotation Zrotation
												End Site
												{
													OFFSET 0.000000 4.965668 0.016226
												}
											}
										}
									}
								}
								JOINT RightHandPinky1
								{
									OFFSET -20.037003 -1.530334 -10.950259
									CHANNELS 3 Xrotation Yrotation Zrotation
									JOINT RightHandPinky2
									{
										OFFSET -5.254700 0.000000 0.000000
										CHANNELS 3 Xrotation Yrotation Zrotation
										JOINT RightHandPinky3
										{
											OFFSET -4.810204 0.000000 0.000000
											CHANNELS 3 Xrotation Yrotation Zrotation
											JOINT RightHandPinky4
											{
												OFFSET -3.647202 0.000000 0.000000
												CHANNELS 3 Xrotation Yrotation Zrotation
												End Site
												{
													OFFSET 0.000000 3.647186 0.011917
												}
											}
										}
									}
								}
							}
						}
					}
				}
			}
		}
	}
	JOINT LeftUpLeg
	{
		OFFSET 15.427100 -6.655098 0.678600
		CHANNELS 3 Xrotation Yrotation Zrotation
		JOINT LeftLeg
		{
			OFFSET 4.081073 -39.591068 13.024000
			CHANNELS 3 Xrotation Yrotation Zrotation
			JOINT LeftFoot
			{
				OFFSET -4.081074 -37.707932 -15.979700
				CHANNELS 3 Xrotation Yrotation Zrotation
				JOINT LeftToeBase
				{
					OFFSET 5.346399 -15.068900 20.645000
					CHANNELS 3 Xrotation Yrotation Zrotation
					JOINT LeftToe_End
					{
						OFFSET 2.754700 0.931300 11.300900
						CHANNELS 3 Xrotation Yrotation Zrotation
						End Site
						{
							OFFSET 0.000000 11.669021 0.000000
						}
					}
				}
			}
		}
	}
	JOINT RightUpLeg
	{
		OFFSET -15.569500 -6.655098 0.678600
		CHANNELS 3 Xrotation Yrotation Zrotation
		JOINT RightLeg
		{
			OFFSET -4.081825 -39.591045 13.023800
			CHANNELS 3 Xrotation Yrotation Zrotation
			JOINT RightFoot
			{
				OFFSET 4.081824 -37.707954 -15.979600
				CHANNELS 3 Xrotation Yrotation Zrotation
				JOINT RightToeBase
				{
					OFFSET -5.346400 -15.068900 20.645000
					CHANNELS 3 Xrotation Yrotation Zrotation
					JOINT RightToe_End
					{
						OFFSET -2.754700 0.931300 11.300900
						CHANNELS 3 Xrotation Yrotation Zrotation
						End Site
						{
							OFFSET 0.000000 11.669021 0.000000
						}
					}
				}
			}
		}
	}
}
MOTION
Frames: 4
Frame Time: 0.033333
-0.393925 85.851807 43.591045 11.566301 2.366016 0.052508 -0.861994 -6.116229 0.349638 -0.767768 -4.115064 0.790374 -0.827297 -4.101234 0.818235 -3.394009 0.700011 -0.321214 -23.512001 6.054494 -7.288211 0.000002 0.000000 -0.000000 1.731064 -12.207145 -11.006085 15.749996 -29.125002 -53.340195 -0.000002 -19.706093 -0.000008 -37.389671 -19.347510 11.506712 2.329001 13.915620 11.102802 7.744817 12.002515 -1.446909 1.303071 3.628553 1.729264 -0.000001 -0.000001 -0.000000 0.043659 0.775777 -6.442300 0.100919 1.176960 -9.801818 0.025271 0.590637 -4.900379 -0.000001 0.000001 -0.000003 0.043448 0.773852 -6.426325 0.101251 1.178862 -9.817787 0.025274 0.590638 -4.900379 0.000000 0.000001 -0.000002 0.043659 0.775777 -6.442298 0.100915 1.176960 -9.801818 0.025276 0.590638 -4.900371 -0.000000 0.000003 0.000002 0.481788 4.806393 -5.953229 0.093450 -2.878237 -10.305082 0.025274 0.590638 -4.900373 0.000003 -0.000001 -0.000001 0.906813 0.651922 10.409735 25.803263 16.583984 61.246224 -0.000006 18.057086 0.000011 -27.041274 4.122396 -16.248740 0.925675 -12.316389 -2.902935 8.986070 -19.208107 -3.185046 0.983755 -5.064980 -4.018868 -0.000003 0.000000 0.000003 0.053196 -0.860250 7.077388 0.020488 -0.534388 4.389506 0.005122 -0.267396 2.194714 0.000001 -0.000000 -0.000001 0.053196 -0.860249 7.077387 0.020487 -0.534387 4.389506 0.005123 -0.267398 2.194711 -0.000000 -0.000000 -0.000001 0.053197 -0.860248 7.077394 0.020487 -0.534389 4.389497 0.005121 -0.267395 2.194715 0.000000 -0.000000 -0.000000 0.053196 -0.860250 7.077387 0.020488 -0.534389 4.389505 0.005122 -0.267396 2.194717 -0.000000 0.000001 -0.000001 12.711261 3.553841 -3.261506 21.774735 0.739410 3.487491 -24.165561 2.608181 -3.162968 -32.134862 0.000001 0.000001 -0.000001 0.000000 -0.000000 -54.538463 -14.095335 -2.448064 19.390407 5.761470 2.425729 14.610946 0.565891 -8.266461 0.000004 -0.000003 0.000002 0.000001 -0.000000 -0.000000 
-0.862760 84.727425 48.455780 11.097930 1.185290 -0.892079 -0.498581 -5.842778 1.202987 -0.457831 -3.835291 1.195008 -0.510593 -3.826501 1.208335 -3.643523 0.810888 -0.237893 -24.361062 6.857602 -7.579569 -0.000001 -0.000001 -0.000000 1.617452 -12.140999 -10.899459 16.073793 -26.261719 -54.594730 0.000003 -23.767501 0.000005 -37.136633 -19.421872 11.901009 2.328999 13.915623 11.102802 7.744818 12.002512 -1.446913 1.303073 3.628553 1.729263 0.000001 0.000000 0.000002 0.043662 0.775777 -6.442301 0.100920 1.176959 -9.801820 0.025271 0.590639 -4.900377 0.000001 0.000001 -0.000001 0.043448 0.773856 -6.426326 0.101251 1.178857 -9.817787 0.025272 0.590635 -4.900380 -0.000002 -0.000003 -0.000001 0.043662 0.775777 -6.442301 0.100921 1.176959 -9.801818 0.025273 0.590640 -4.900373 0.000000 -0.000001 0.000000 0.481789 4.806393 -5.953229 0.093447 -2.878235 -10.305083 0.025274 0.590638 -4.900371 0.000001 0.000001 0.000000 0.928708 0.770170 10.508877 26.089835 16.078769 60.188296 -0.000005 20.846499 -0.000008 -27.697667 3.366493 -16.352135 0.925674 -12.316390 -2.902936 8.986069 -19.208104 -3.185047 0.983758 -5.064978 -4.018866 0.000000 0.000003 -0.000001 0.053195 -0.860250 7.077389 0.020487 -0.534388 4.389505 0.005121 -0.267396 2.194713 -0.000000 -0.000000 0.000000 0.053195 -0.860249 7.077390 0.020488 -0.534388 4.389503 0.005124 -0.267398 2.194708 -0.000001 -0.000000 -0.000000 0.053196 -0.860248 7.077395 0.020486 -0.534389 4.389501 0.005122 -0.267395 2.194714 -0.000000 -0.000000 -0.000001 0.053195 -0.860250 7.077390 0.020487 -0.534388 4.389502 0.005122 -0.267396 2.194714 -0.000002 -0.000000 -0.000001 11.933359 4.742101 -1.617285 28.750670 1.579491 4.282261 -17.701154 5.293843 -6.403002 -42.130994 -0.000003 -0.000003 0.000000 0.000000 -0.000000 -53.265777 -13.637854 -1.039010 22.557506 5.256249 2.727273 17.039365 0.348226 -8.533497 -0.000001 -0.000001 -0.000001 -0.000000 0.000000 -0.000000 
-1.240077 83.525925 52.635994 10.330262 -0.145787 -2.122331 -0.047527 -5.300436 2.311147 -0.098078 -3.408214 1.535878 -0.140295 -3.406282 1.537099 -3.699895 0.912758 -0.070172 -24.363611 7.559805 -7.590365 -0.000002 0.000000 0.000001 1.438776 -11.585381 -10.772401 16.513493 -24.710762 -56.016062 0.000000 -25.500078 -0.000003 -38.047968 -19.225132 10.992324 2.328996 13.915621 11.102799 7.744819 12.002512 -1.446913 1.303072 3.628555 1.729263 0.000001 0.000001 0.000000 0.043661 0.775776 -6.442301 0.100921 1.176962 -9.801819 0.025274 0.590639 -4.900379 -0.000001 -0.000000 -0.000001 0.043446 0.773857 -6.426326 0.101252 1.178855 -9.817787 0.025270 0.590640 -4.900380 0.000002 -0.000001 -0.000001 0.043661 0.775776 -6.442301 0.100918 1.176963 -9.801818 0.025279 0.590643 -4.900372 -0.000001 0.000001 0.000001 0.481792 4.806396 -5.953228 0.093451 -2.878236 -10.305082 0.025276 0.590637 -4.900371 0.000002 0.000000 -0.000001 0.970244 0.994272 10.684375 25.994351 16.387309 59.004078 -0.000007 23.238115 -0.000007 -28.803123 2.425961 -16.646759 0.925674 -12.316390 -2.902930 8.986072 -19.208107 -3.185047 0.983756 -5.064982 -4.018868 -0.000003 -0.000002 0.000002 0.053195 -0.860248 7.077390 0.020486 -0.534389 4.389506 0.005122 -0.267396 2.194714 -0.000000 -0.000000 -0.000001 0.053195 -0.860248 7.077389 0.020487 -0.534389 4.389503 0.005123 -0.267398 2.194708 -0.000001 -0.000000 -0.000001 0.053196 -0.860247 7.077394 0.020486 -0.534390 4.389497 0.005121 -0.267396 2.194714 0.000000 0.000000 -0.000001 0.053195 -0.860248 7.077389 0.020485 -0.534389 4.389503 0.005121 -0.267395 2.194715 -0.000001 0.000001 -0.000002 8.585682 5.668014 -0.296397 38.408162 6.115786 6.151359 -6.498564 6.308987 -7.874507 -49.004032 0.060069 -2.298539 0.000000 0.000000 0.000000 -52.136832 -13.514894 0.632021 27.104713 5.058522 2.831623 15.019934 0.150277 -9.027571 -0.000143 -0.000001 0.000009 0.000000 0.000001 -0.000000 
-1.536150 82.603172 56.219856 9.469459 -1.206732 -3.409733 0.358034 -4.504175 3.601340 0.201109 -2.925153 1.773846 0.169353 -2.928105 1.769978 -3.512061 0.975752 0.153781 -23.566425 7.976272 -7.283358 -0.000001 0.000000 0.000001 1.236724 -10.702357 -10.638975 16.841616 -24.542565 -57.448544 0.000004 -24.618645 0.000010 -39.384770 -18.499349 9.035614 2.328997 13.915620 11.102797 7.744819 12.002513 -1.446911 1.303074 3.628553 1.729263 -0.000000 -0.000000 -0.000003 0.043659 0.775777 -6.442302 0.100919 1.176958 -9.801819 0.025273 0.590640 -4.900378 0.000003 -0.000003 0.000001 0.043448 0.773857 -6.426327 0.101248 1.178859 -9.817787 0.025269 0.590641 -4.900380 -0.000001 -0.000002 -0.000001 0.043659 0.775777 -6.442303 0.100920 1.176957 -9.801816 0.025279 0.590641 -4.900372 0.000000 0.000001 0.000002 0.481791 4.806395 -5.953228 0.093451 -2.878236 -10.305081 0.025277 0.590637 -4.900370 0.000003 0.000001 -0.000001 1.024068 1.321943 10.884889 25.376825 17.507192 57.936028 0.000005 24.477419 -0.000024 -30.352374 1.557268 -17.083901 0.925675 -12.316389 -2.902935 8.986073 -19.208107 -3.185044 0.983754 -5.064978 -4.018865 -0.000001 0.000006 0.000002 0.053196 -0.860249 7.077389 0.020487 -0.534389 4.389505 0.005121 -0.267396 2.194715 -0.000000 0.000000 -0.000001 0.053196 -0.860249 7.077390 0.020488 -0.534389 4.389506 0.005125 -0.267398 2.194708 -0.000000 -0.000000 0.000000 0.053196 -0.860247 7.077393 0.020486 -0.534390 4.389499 0.005122 -0.267396 2.194716 0.000000 0.000000 -0.000001 0.053196 -0.860249 7.077389 0.020487 -0.534389 4.389505 0.005122 -0.267395 2.194715 0.000000 0.000000 -0.000001 2.441461 5.163342 0.729411 45.210217 11.387509 7.391359 14.158984 2.049867 -3.732847 -58.207343 3.838031 -14.194354 0.000002 0.000000 -0.000000 -50.858354 -13.833956 2.709349 32.070303 4.712964 2.184645 10.052090 0.534053 -9.889639 -0.007046 0.000003 -0.000001 0.000000 -0.000000 0.000000 
